<mxfile host="65bd71144e">
    <diagram id="kdDHmwxrMbrZazyZZIj2" name="Page-1">
        <mxGraphModel dx="746" dy="547" grid="1" gridSize="10" guides="1" tooltips="1" connect="1" arrows="1" fold="1" page="1" pageScale="1" pageWidth="827" pageHeight="1169" math="0" shadow="0">
            <root>
                <mxCell id="0"/>
                <mxCell id="1" parent="0"/>
                <mxCell id="10" style="edgeStyle=none;html=1;exitX=0;exitY=0.5;exitDx=0;exitDy=0;entryX=1;entryY=0.25;entryDx=0;entryDy=0;" edge="1" parent="1" source="4" target="51">
                    <mxGeometry relative="1" as="geometry"/>
                </mxCell>
                <UserObject label="" data="" id="4">
                    <mxCell style="whiteSpace=wrap;html=1;aspect=fixed;strokeColor=#FFFFFF;" vertex="1" parent="1">
                        <mxGeometry x="450" y="440" width="180" height="180" as="geometry"/>
                    </mxCell>
                </UserObject>
                <mxCell id="14" style="edgeStyle=none;html=1;exitX=1;exitY=0.5;exitDx=0;exitDy=0;entryX=0.5;entryY=1;entryDx=0;entryDy=0;" edge="1" parent="1" source="5" target="4">
                    <mxGeometry relative="1" as="geometry">
                        <mxPoint x="550" y="737" as="targetPoint"/>
                    </mxGeometry>
                </mxCell>
                <mxCell id="5" value="" style="whiteSpace=wrap;html=1;aspect=fixed;strokeColor=#FFFFFF;" vertex="1" parent="1">
                    <mxGeometry x="290" y="660" width="140" height="140" as="geometry"/>
                </mxCell>
                <mxCell id="13" style="edgeStyle=none;html=1;exitX=0;exitY=0.5;exitDx=0;exitDy=0;entryX=0.5;entryY=1;entryDx=0;entryDy=0;" edge="1" parent="1" source="6" target="4">
                    <mxGeometry relative="1" as="geometry">
                        <mxPoint x="550" y="735" as="targetPoint"/>
                    </mxGeometry>
                </mxCell>
                <mxCell id="6" value="" style="whiteSpace=wrap;html=1;aspect=fixed;strokeColor=#FFFFFF;" vertex="1" parent="1">
                    <mxGeometry x="630" y="660" width="140" height="140" as="geometry"/>
                </mxCell>
                <mxCell id="15" style="edgeStyle=none;html=1;exitX=0;exitY=0.5;exitDx=0;exitDy=0;entryX=0.5;entryY=1;entryDx=0;entryDy=0;" edge="1" parent="1" source="7" target="5">
                    <mxGeometry relative="1" as="geometry"/>
                </mxCell>
                <mxCell id="16" style="edgeStyle=none;html=1;exitX=1;exitY=0.5;exitDx=0;exitDy=0;entryX=0.5;entryY=1;entryDx=0;entryDy=0;" edge="1" parent="1" source="7" target="6">
                    <mxGeometry relative="1" as="geometry"/>
                </mxCell>
                <mxCell id="7" value="" style="whiteSpace=wrap;html=1;aspect=fixed;strokeColor=#FFFFFF;" vertex="1" parent="1">
                    <mxGeometry x="480" y="850" width="120" height="120" as="geometry"/>
                </mxCell>
                <mxCell id="9" value="" style="whiteSpace=wrap;html=1;aspect=fixed;strokeColor=#FFFFFF;" vertex="1" parent="1">
                    <mxGeometry x="36.25" y="440" width="183.75" height="183.75" as="geometry"/>
                </mxCell>
                <mxCell id="19" value="Emi" style="text;strokeColor=none;fillColor=none;html=1;fontSize=24;fontStyle=1;verticalAlign=middle;align=center;" vertex="1" parent="1">
                    <mxGeometry x="317" y="670" width="100" height="40" as="geometry"/>
                </mxCell>
                <mxCell id="21" value="Requirements" style="text;strokeColor=none;fillColor=none;html=1;fontSize=24;fontStyle=1;verticalAlign=middle;align=center;" vertex="1" parent="1">
                    <mxGeometry x="490" y="440" width="100" height="40" as="geometry"/>
                </mxCell>
                <mxCell id="22" value="Calculate" style="text;strokeColor=none;fillColor=none;html=1;fontSize=24;fontStyle=1;verticalAlign=middle;align=center;" vertex="1" parent="1">
                    <mxGeometry x="490" y="850" width="100" height="40" as="geometry"/>
                </mxCell>
                <mxCell id="23" value="Data" style="text;strokeColor=none;fillColor=none;html=1;fontSize=24;fontStyle=1;verticalAlign=middle;align=center;" vertex="1" parent="1">
                    <mxGeometry x="78.13" y="450" width="100" height="40" as="geometry"/>
                </mxCell>
                <mxCell id="24" value="Pre-Emi" style="text;strokeColor=none;fillColor=none;html=1;fontSize=24;fontStyle=1;verticalAlign=middle;align=center;" vertex="1" parent="1">
                    <mxGeometry x="645" y="670" width="100" height="40" as="geometry"/>
                </mxCell>
                <mxCell id="41" value="" style="shape=ext;double=1;rounded=0;whiteSpace=wrap;html=1;strokeColor=#FFFFFF;fontSize=13;fontColor=#F0F0F0;" vertex="1" parent="1">
                    <mxGeometry x="450" y="500" width="180" height="120" as="geometry"/>
                </mxCell>
                <mxCell id="43" value="&lt;span style=&quot;caret-color: rgb(0, 0, 0); font-family: -webkit-standard; font-size: medium; font-style: normal; font-variant-caps: normal; letter-spacing: normal; text-align: start; text-indent: 0px; text-transform: none; word-spacing: 0px; -webkit-text-stroke-width: 0px; text-decoration: none; float: none; display: inline !important; background-color: rgb(255, 255, 255);&quot;&gt;&lt;font color=&quot;#000000&quot;&gt;+ requirements()&lt;/font&gt;&lt;/span&gt;" style="text;strokeColor=none;fillColor=none;html=1;fontSize=24;fontStyle=0;verticalAlign=middle;align=center;fontColor=#F0F0F0;" vertex="1" parent="1">
                    <mxGeometry x="490" y="530" width="100" height="40" as="geometry"/>
                </mxCell>
                <mxCell id="45" value="" style="shape=ext;double=1;rounded=0;whiteSpace=wrap;html=1;strokeColor=#FFFFFF;fontSize=16;fontColor=#F0F0F0;" vertex="1" parent="1">
                    <mxGeometry x="290" y="720" width="140" height="84" as="geometry"/>
                </mxCell>
                <mxCell id="46" value="&lt;span style=&quot;caret-color: rgb(0, 0, 0); font-family: -webkit-standard; font-size: 14px; font-style: normal; font-variant-caps: normal; letter-spacing: normal; text-align: start; text-indent: 0px; text-transform: none; word-spacing: 0px; -webkit-text-stroke-width: 0px; text-decoration: none; float: none; display: inline !important; background-color: rgb(247, 243, 243);&quot;&gt;&lt;font color=&quot;#181616&quot;&gt;+ calculate_emi(): float&lt;/font&gt;&lt;/span&gt;" style="text;strokeColor=none;fillColor=none;html=1;fontSize=14;fontStyle=0;verticalAlign=middle;align=center;fontColor=#F0F0F0;" vertex="1" parent="1">
                    <mxGeometry x="310" y="742" width="100" height="40" as="geometry"/>
                </mxCell>
                <mxCell id="47" value="" style="shape=ext;double=1;rounded=0;whiteSpace=wrap;html=1;strokeColor=#FFFFFF;fontSize=14;fontColor=#F0F0F0;" vertex="1" parent="1">
                    <mxGeometry x="630" y="720" width="140" height="80" as="geometry"/>
                </mxCell>
                <mxCell id="48" value="&lt;span style=&quot;caret-color: rgb(0, 0, 0); font-family: -webkit-standard; font-size: 12px; font-style: normal; font-variant-caps: normal; letter-spacing: normal; text-align: start; text-indent: 0px; text-transform: none; word-spacing: 0px; -webkit-text-stroke-width: 0px; text-decoration: none; float: none; display: inline !important; background-color: rgb(244, 240, 240);&quot;&gt;&lt;font color=&quot;#000000&quot;&gt;+ calculate_pre_emi(): float&lt;/font&gt;&lt;/span&gt;" style="text;strokeColor=none;fillColor=none;html=1;fontSize=12;fontStyle=0;verticalAlign=middle;align=center;fontColor=#F0F0F0;" vertex="1" parent="1">
                    <mxGeometry x="650" y="740" width="100" height="40" as="geometry"/>
                </mxCell>
                <mxCell id="49" value="" style="shape=ext;double=1;rounded=0;whiteSpace=wrap;html=1;strokeColor=#FFFFFF;fontSize=12;fontColor=#F0F0F0;" vertex="1" parent="1">
                    <mxGeometry x="480" y="890" width="120" height="80" as="geometry"/>
                </mxCell>
                <mxCell id="50" value="" style="shape=ext;double=1;rounded=0;whiteSpace=wrap;html=1;strokeColor=#FFFFFF;fontSize=12;fontColor=#F0F0F0;" vertex="1" parent="1">
                    <mxGeometry x="36.25" y="490" width="183.75" height="137.5" as="geometry"/>
                </mxCell>
                <mxCell id="51" value="&lt;font style=&quot;background-color: rgb(255, 255, 255);&quot; color=&quot;#000000&quot;&gt;&lt;span style=&quot;border-color: rgb(0, 0, 0); font-family: Helvetica; font-style: normal; font-variant-ligatures: normal; font-variant-caps: normal; font-weight: 400; letter-spacing: normal; orphans: 2; text-align: left; text-indent: 0px; text-transform: none; widows: 2; word-spacing: 0px; -webkit-text-stroke-width: 0px; text-decoration-thickness: initial; text-decoration-style: initial; text-decoration-color: initial; font-size: 13px;&quot;&gt;&lt;span style=&quot;border-color: rgb(0, 0, 0);&quot;&gt;&#9;&lt;/span&gt;- Principal&amp;nbsp;: long long int&lt;br style=&quot;border-color: rgb(0, 0, 0);&quot;&gt;&lt;span style=&quot;border-color: rgb(0, 0, 0);&quot;&gt;&#9;&lt;/span&gt;- Intrest : float&lt;/span&gt;&lt;br style=&quot;border-color: rgb(0, 0, 0); font-family: Helvetica; font-size: 12px; font-style: normal; font-variant-ligatures: normal; font-variant-caps: normal; font-weight: 400; letter-spacing: normal; orphans: 2; text-align: left; text-indent: 0px; text-transform: none; widows: 2; word-spacing: 0px; -webkit-text-stroke-width: 0px; text-decoration-thickness: initial; text-decoration-style: initial; text-decoration-color: initial;&quot;&gt;&lt;span style=&quot;border-color: rgb(0, 0, 0); font-family: Helvetica; font-style: normal; font-variant-ligatures: normal; font-variant-caps: normal; font-weight: 400; letter-spacing: normal; orphans: 2; text-align: left; text-indent: 0px; text-transform: none; widows: 2; word-spacing: 0px; -webkit-text-stroke-width: 0px; text-decoration-thickness: initial; text-decoration-style: initial; text-decoration-color: initial; font-size: 13px;&quot;&gt;&lt;span style=&quot;border-color: rgb(0, 0, 0);&quot;&gt;&#9;&lt;/span&gt;-&amp;nbsp;Time Period : int&lt;/span&gt;&lt;/font&gt;" style="text;strokeColor=none;fillColor=none;html=1;whiteSpace=wrap;verticalAlign=middle;overflow=hidden;fontSize=12;fontColor=#F0F0F0;" vertex="1" parent="1">
                    <mxGeometry x="50" y="501.25" width="170" height="118.75" as="geometry"/>
                </mxCell>
            </root>
        </mxGraphModel>
    </diagram>
</mxfile>